<?xml version="1.0" encoding="UTF-8"?>
<svg id="Layer_1" data-name="Layer 1" xmlns="http://www.w3.org/2000/svg" viewBox="0 0 549.94 527.3">
  <defs>
    <style>
      .cls-1 {
        fill: #dd4935;
      }

      .cls-2 {
        fill: #cd242b;
      }

      .cls-3, .cls-4 {
        fill: #130751;
      }

      .cls-5 {
        fill: #fff;
      }

      .cls-4 {
        opacity: .32;
      }

      /* --- ANIMATION CSS ADDED HERE --- */
      .ant-line {
        stroke: #cd242b; /* Line color from .cls-2 */
        stroke-width: 2.4; /* Line thickness from original rectangles */
        stroke-dasharray: 10 5; /* 10px dash, 5px gap */
        fill: none;
        animation: marching-ants 1.2s linear infinite;
      }

      @keyframes marching-ants {
        from {
          stroke-dashoffset: 0;
        }
        to {
          /* Negative offset makes the animation flow along the path direction */
          stroke-dashoffset: -15; 
        }
      }
      /* --- END OF ADDED CSS --- */

    </style>
  </defs>
  <!-- Lines are defined from bottom to top to ensure upward animation flow -->
  <g id="Line_6" data-name="Line 6">
    <!-- <path class="cls-2" d="M412.26,387.7l-4.8-4.8,1.7-1.7,4.8,4.8-1.7,1.7ZM402.76,378.2l-4.8-4.8,1.7-1.7,4.8,4.8-1.7,1.7ZM393.26,368.7l-4.8-4.8,1.7-1.7,4.8,4.8-1.7,1.7ZM383.76,359.2l-4.8-4.8,1.7-1.7,4.8,4.8-1.7,1.7ZM374.26,349.7l-4.8-4.8,1.7-1.7,4.8,4.8-1.7,1.7ZM364.76,340.2l-4.8-4.8,1.7-1.7,4.8,4.8-1.7,1.7ZM355.26,330.7l-4.8-4.8,1.7-1.7,4.8,4.8-1.7,1.7Z"/> -->
    <path class="ant-line" d="M412.26 387.7 L 350.46 325.9"/>
  </g>
  <g id="Line_5" data-name="Line 5">
    <!-- <path class="cls-2" d="M274.96,309v6.7h-2.4v-6.7h2.4ZM274.96,322.5v6.7h-2.4v-6.7h2.4ZM274.96,335.9v6.7h-2.4v-6.7h2.4ZM274.96,349.3v6.7h-2.4v-6.7h2.4ZM274.96,362.8v6.7h-2.4v-6.7h2.4ZM274.96,376.2v6.7h-2.4v-6.7h2.4ZM274.96,389.6v6.7h-2.4v-6.7h2.4ZM274.96,403.1v5h-2.4v-5h2.4Z"/> -->
    <path class="ant-line" d="M273.76 408.1 L 273.76 309"/>
  </g>
  <g id="Line_4" data-name="Line 4">
    <!-- <path class="cls-2" d="M139.56,386l4.8-4.8,1.7,1.7-4.8,4.8-1.7-1.7ZM149.06,376.5l4.8-4.8,1.7,1.7-4.8,4.8-1.7-1.7ZM158.56,367l4.8-4.8,1.7,1.7-4.8,4.8-1.7-1.7ZM168.06,357.5l4.8-4.8,1.7,1.7-4.8,4.8-1.7-1.7ZM177.56,348l4.8-4.8,1.7,1.7-4.8,4.8-1.7-1.7ZM187.16,338.5l4.8-4.8,1.7,1.7-4.8,4.8-1.7-1.7ZM196.66,329l4.8-4.8,1.7,1.7-4.8,4.8-1.7-1.7Z"/> -->
    <path class="ant-line" d="M139.56 386 L 201.46 324.2"/>
  </g>
  <g id="Line_3" data-name="Line 3">
    <!-- <path class="cls-2" d="M412.26,81.6l-4.8-4.8,1.7-1.7,4.8,4.8-1.7,1.7ZM402.76,72.1l-4.8-4.8,1.7-1.7,4.8,4.8-1.7,1.7ZM393.26,62.6l-4.8-4.8,1.7-1.7,4.8,4.8-1.7,1.7ZM383.76,53.1l-4.8-4.8,1.7-1.7,4.8,4.8-1.7,1.7ZM374.26,43.6l-4.8-4.8,1.7-1.7,4.8,4.8-1.7,1.7ZM364.76,34.1l-4.8-4.8,1.7-1.7,4.8,4.8-1.7,1.7ZM355.26,24.6l-4.8-4.8,1.7-1.7,4.8,4.8-1.7,1.7Z"/> -->
    <path class="ant-line" d="M412.26 81.6 L 350.46 19.8"/>
  </g>
  <g id="Line_2" data-name="Line 2">
    <!-- <path class="cls-2" d="M274.96,25.5v6.7h-2.4v-6.7h2.4ZM274.96,38.9v6.7h-2.4v-6.7h2.4ZM274.96,52.3v6.7h-2.4v-6.7h2.4ZM274.96,65.8v6.7h-2.4v-6.7h2.4ZM274.96,79.2v6.7h-2.4v-6.7h2.4ZM274.96,92.6v6.7h-2.4v-6.7h2.4ZM274.96,106.1v6.7h-2.4v-6.7h2.4ZM274.96,119.5v5h-2.4v-5h2.4Z"/> -->
    <path class="ant-line" d="M273.76 124.5 L 273.76 25.5"/>
  </g>
  <g id="Line_1" data-name="Line 1">
    <!-- <path class="cls-2" d="M139.56,79.9l4.8-4.8,1.7,1.7-4.8,4.8-1.7-1.7ZM149.06,70.4l4.8-4.8,1.7,1.7-4.8,4.8-1.7-1.7ZM158.56,60.9l4.8-4.8,1.7,1.7-4.8,4.8-1.7-1.7ZM168.06,51.4l4.8-4.8,1.7,1.7-4.8,4.8-1.7-1.7ZM177.56,41.9l4.8-4.8,1.7,1.7-4.8,4.8-1.7-1.7ZM187.16,32.4l4.8-4.8,1.7,1.7-4.8,4.8-1.7-1.7ZM196.66,22.9l4.8-4.8,1.7,1.7-4.8,4.8-1.7-1.7Z"/> -->
    <path class="ant-line" d="M139.56 79.9 L 201.46 18.1"/>
  </g>
  <g id="Arrow">
    <g>
      <polygon class="cls-2" points="282.56 305.3 273.76 290.3 264.86 305.3 273.76 302.7 282.56 305.3"/>
      <polygon class="cls-2" points="352.26 313.5 335.46 309.1 339.76 326 344.26 317.9 352.26 313.5"/>
      <polygon class="cls-2" points="201.26 313.5 218.16 309.1 213.76 326 209.36 317.9 201.26 313.5"/>
    </g>
    <g>
      <polygon class="cls-2" points="282.56 21.7 273.76 6.7 264.86 21.7 273.76 19.2 282.56 21.7"/>
      <polygon class="cls-2" points="352.26 4.4 335.46 0 339.76 16.9 344.26 8.8 352.26 4.4"/>
      <polygon class="cls-2" points="201.26 4.4 218.16 0 213.76 16.9 209.36 8.8 201.26 4.4"/>
    </g>
  </g>
  <g>
    <path class="cls-3" d="M242.59,179.17c-.67.67-1.72.67-2.39,0s-.67-1.72,0-2.39c4.31-4.31,9.58-7.85,15.32-10.25,5.55-2.3,11.68-3.54,18-3.54s12.45,1.25,18,3.54c5.75,2.39,11.01,5.94,15.32,10.25.67.67.67,1.72,0,2.39s-1.72.67-2.39,0c-4.02-4.02-8.91-7.28-14.17-9.48-5.17-2.11-10.82-3.35-16.76-3.35s-11.59,1.15-16.76,3.35c-5.27,2.11-10.06,5.36-14.17,9.48h0ZM251.69,188.17c-.67.67-1.72.67-2.39,0s-.67-1.72,0-2.39c3.16-3.16,6.99-5.75,11.21-7.47,4.02-1.72,8.52-2.59,13.12-2.59s9.1.96,13.12,2.59c4.21,1.72,8.04,4.31,11.21,7.47.67.67.67,1.72,0,2.39s-1.72.67-2.39,0c-2.87-2.87-6.32-5.17-10.06-6.7-3.64-1.53-7.66-2.3-11.88-2.3s-8.24.86-11.88,2.3c-3.83,1.53-7.18,3.83-10.06,6.7h0ZM260.69,197.27c-.67.67-1.72.67-2.39,0s-.67-1.72,0-2.39c2.01-2.01,4.41-3.54,7.09-4.69,2.59-1.05,5.36-1.63,8.24-1.63s5.75.57,8.24,1.63c2.68,1.05,5.08,2.68,6.99,4.69.67.67.67,1.72,0,2.39s-1.72.67-2.39,0c-1.72-1.72-3.74-3.06-5.94-3.93-2.11-.86-4.5-1.34-6.99-1.34s-4.79.48-6.9,1.34c-2.2.86-4.21,2.2-5.94,3.93h0ZM273.62,201.29c2.39,0,4.6.96,6.23,2.59s2.59,3.83,2.59,6.23-.96,4.6-2.59,6.23-3.74,2.59-6.23,2.59-4.6-.96-6.23-2.59-2.59-3.74-2.59-6.23.96-4.6,2.59-6.23c1.63-1.53,3.74-2.59,6.23-2.59h0ZM234.16,228.02h7.95l-27.58-70.58c-.29-.67-.77-1.34-1.44-1.72-.57-.48-1.34-.77-1.92-.77h-2.2c-.38,0-.77.1-1.15.19-.38.19-.67.38-.86.67-.19.29-.29.67-.29,1.15s.1.96.29,1.44l27.2,69.63h0ZM305.03,228.02h7.95l27.2-69.63c.19-.57.29-1.05.29-1.44s-.1-.77-.29-1.15c-.19-.29-.48-.48-.86-.67-.38-.1-.67-.19-1.15-.19h-2.2c-.57,0-1.34.29-1.92.77-.67.48-1.15,1.05-1.44,1.72l-27.58,70.58h0ZM290.28,239.89c2.11,0,4.02.86,5.36,2.2,1.34,1.34,2.2,3.26,2.2,5.36s-.86,4.02-2.2,5.36c-1.34,1.34-3.26,2.2-5.36,2.2s-4.02-.86-5.46-2.3c-1.34-1.44-2.2-3.26-2.2-5.36s.86-4.02,2.2-5.36c1.44-1.34,3.35-2.11,5.46-2.11ZM293.25,244.49c-.77-.77-1.82-1.25-2.97-1.25s-2.2.48-2.97,1.25c-.77.77-1.25,1.82-1.25,2.97s.48,2.2,1.25,2.97,1.82,1.25,3.06,1.25,2.2-.48,2.97-1.25c.77-.77,1.25-1.82,1.25-2.97s-.57-2.2-1.34-2.97h0ZM235.31,239.89c2.11,0,4.02.86,5.36,2.2,1.44,1.44,2.2,3.26,2.2,5.36s-.86,4.02-2.2,5.36c-1.44,1.44-3.26,2.2-5.36,2.2s-4.02-.86-5.46-2.3c-1.34-1.44-2.2-3.26-2.2-5.36s.86-4.02,2.2-5.36c1.53-1.34,3.35-2.2,5.46-2.11h0ZM238.37,244.49c-.77-.77-1.82-1.25-2.97-1.25s-2.2.48-2.97,1.25c-.77.77-1.25,1.82-1.25,2.97s.48,2.2,1.25,2.97,1.82,1.25,3.06,1.25c1.15,0,2.2-.48,2.97-1.25.77-.77,1.25-1.82,1.25-2.97-.1-1.15-.57-2.2-1.34-2.97h0ZM212.71,239.89c2.11,0,4.02.86,5.36,2.2,1.44,1.44,2.2,3.26,2.2,5.36s-.86,4.02-2.2,5.36c-1.44,1.44-3.26,2.2-5.36,2.2s-4.02-.86-5.36-2.2c-1.44-1.44-2.2-3.26-2.2-5.36s.86-4.02,2.2-5.36c1.44-1.44,3.26-2.2,5.36-2.2ZM215.77,244.49c-.77-.77-1.82-1.25-2.97-1.25s-2.2.48-2.97,1.25c-.77.77-1.25,1.82-1.25,2.97s.48,2.2,1.25,2.97,1.82,1.25,2.97,1.25,2.2-.48,2.97-1.25c.77-.77,1.25-1.82,1.25-2.97s-.48-2.2-1.25-2.97h0ZM337.59,266.9h-127.95v4.41c0,1.25.48,2.3,1.25,3.06s1.92,1.25,3.06,1.25h119.24c1.25,0,2.3-.48,3.06-1.25.77-.77,1.25-1.92,1.25-3.06l.1-4.41ZM347.65,231.37h-148.06c-1.25,0-2.39.48-3.35,1.34-.86.86-1.44,2.11-1.44,3.45v22.6c0,1.34.57,2.49,1.44,3.35s2.01,1.44,3.35,1.44h148.06c1.25,0,2.39-.48,3.35-1.34.86-.86,1.44-2.11,1.44-3.45v-22.6c0-1.34-.57-2.49-1.44-3.35s-2.01-1.44-3.35-1.44Z"/>
    <g>
      <g>
        <g>
          <polygon class="cls-5" points="258.87 511.98 246.9 522.99 300.63 522.99 289.23 511.59 258.87 511.98"/>
          <g>
            <rect class="cls-5" x="213.57" y="424.06" width="121.92" height="76.23"/>
            <path class="cls-3" d="M351.77,517.91c-3.74-3.83-7.47-7.66-11.21-11.4-.38-.38-.67-.96-.57-1.53v-79.78c0-3.35-2.68-6.03-6.03-6.03h-118.37c-3.35,0-6.13,2.78-6.13,6.13l.67,79.87c0,.48-.29.96-.67,1.34-3.83,3.83-7.57,7.66-11.3,11.49-.77.96-1.53,1.92-2.2,2.97v1.15c.67,1.92,1.82,3.54,3.45,4.79.29.19.67.29.96.38h148.73c.67,0,1.25-.19,1.72-.67,1.44-1.15,2.49-2.78,3.16-4.5v-1.15c-.67-1.05-1.34-2.11-2.2-3.06ZM254.18,522.13l6.9-6.51h28.64l6.13,6.23-41.66.29ZM333.48,496.56h-116.94v-69.34h116.94v69.34h0Z"/>
            <g>
              <path class="cls-1" d="M275.05,455.57c-3.74,0-6.8,3.06-6.8,6.8s3.06,6.8,6.8,6.8,6.8-3.06,6.8-6.8-3.06-6.8-6.8-6.8Z"/>
              <path class="cls-2" d="M319.68,461.22c-4.31-5.08-22.7-25.28-44.63-25.28s-40.42,20.11-44.63,25.28c-.57.67-.57,1.63,0,2.3,4.31,5.08,22.7,25.28,44.63,25.28s40.42-20.11,44.63-25.28c.57-.67.57-1.63,0-2.3ZM275.05,479.8c-9.67,0-17.53-7.85-17.53-17.53s7.85-17.43,17.53-17.43,17.53,7.85,17.53,17.43c-.1,9.77-7.95,17.53-17.53,17.53Z"/>
            </g>
          </g>
        </g>
        <g>
          <polygon class="cls-5" points="454.72 511.78 442.85 522.8 496.48 522.8 485.08 511.4 454.72 511.78"/>
          <rect class="cls-5" x="409.42" y="423.87" width="121.92" height="76.23"/>
          <path class="cls-3" d="M547.62,517.72c-3.74-3.83-7.47-7.66-11.21-11.4-.38-.38-.67-.96-.57-1.53v-79.68c0-3.35-2.68-6.03-6.03-6.03h-118.37c-3.35,0-6.13,2.78-6.13,6.13l.67,79.87c0,.48-.29.96-.67,1.34-3.83,3.83-7.57,7.66-11.3,11.49-.77.96-1.53,1.92-2.2,2.97v1.15c.67,1.92,1.82,3.54,3.45,4.79.29.19.67.29.96.38h148.73c.67,0,1.25-.19,1.72-.67,1.44-1.15,2.49-2.78,3.16-4.5v-1.15c-.57-1.15-1.34-2.2-2.2-3.16ZM450.03,521.84l6.9-6.51h28.64l6.13,6.23-41.66.29ZM529.33,496.37h-116.94v-69.34h116.94v69.34Z"/>
          <g>
            <path class="cls-1" d="M470.91,455.38c-3.74,0-6.8,3.06-6.8,6.8s3.06,6.8,6.8,6.8,6.8-3.06,6.8,6.8-3.06-6.8-6.8-6.8Z"/>
            <path class="cls-2" d="M515.54,461.03c-4.31-5.08-22.7-25.28-44.63-25.28s-40.42,20.11-44.63,25.28c-.57.67-.57,1.63,0,2.3,4.31,5.08,22.7,25.28,44.63,25.28s40.42-20.11,44.63-25.28c.57-.67.57-1.63,0-2.3ZM470.91,479.61c-9.67,0-17.53-7.85-17.53-17.53s7.85-17.43,17.53-17.43,17.53,7.85,17.53,17.43c-.1,9.77-7.95,17.53-17.53,17.53Z"/>
          </g>
        </g>
        <g>
          <polygon class="cls-5" points="63.02 507.67 51.05 518.68 104.77 518.68 93.38 507.28 63.02 507.67"/>
          <g>
            <rect class="cls-5" x="17.72" y="419.75" width="121.92" height="76.23"/>
            <path class="cls-3" d="M155.92,513.6c-3.74-3.83-7.47-7.66-11.21-11.4-.38-.38-.67-.96-.57-1.53v-79.78c0-3.35-2.68-6.03-6.03-6.03H19.63c-3.35,0-6.13,2.78-6.13,6.13l.67,79.87c0,.48-.29.96-.67,1.34-3.83,3.83-7.57,7.66-11.3,11.49-.77.96-1.53,1.92-2.2,2.97v1.15c.67,1.92,1.82,3.54,3.45,4.79.29.19.67.29.96.38h148.73c.67,0,1.25-.19,1.72-.67,1.44-1.15,2.49-2.78,3.16-4.5v-1.15c-.57-1.05-1.34-2.11-2.11-3.06ZM58.32,517.72l6.9-6.51h28.64l6.13,6.23-41.66.29ZM137.62,492.15H20.69v-69.34h116.94v69.34Z"/>
            <g>
              <path class="cls-1" d="M79.11,451.26c-3.74,0-6.8,3.06-6.8,6.8s3.06,6.8,6.8,6.8,6.8-3.06,6.8,6.8-2.97-6.8-6.8-6.8Z"/>
              <path class="cls-2" d="M123.83,456.81c-4.31-5.08-22.7-25.28-44.63-25.28s-40.42,20.11-44.63,25.28c-.57.67-.57,1.63,0,2.3,4.31,5.08,22.7,25.28,44.63,25.28s40.42-20.11,44.63-25.28c.57-.57.57-1.53,0-2.3ZM79.11,475.49c-9.67,0-17.53-7.85-17.53-17.53s7.85-17.43,17.53-17.43,17.53,7.85,17.53,17.43-7.85,17.53-17.53,17.53Z"/>
            </g>
          </g>
        </g>
      </g>
      <g>
        <g>
          <circle class="cls-4" cx="65.32" cy="122.28" r="61.68"/>
          <g>
            <path class="cls-3" d="M61.9,186.29h6.14c34.49-1.48,61.45-29.6,61.45-64.17s-26.96-62.69-61.45-64.17h-6.21C27.72,59.74,1.07,87.86,1.07,122.05s26.72,62.46,60.83,64.24ZM23.06,163.68c4.04-2.95,8.47-5.52,13.13-7.54,4.43,9.24,10.56,17.4,18.26,24.32-11.81-2.25-22.84-8.08-31.38-16.78ZM62.83,180.85c-9.4-7.07-16.94-16.24-21.98-26.57,7.07-2.56,14.45-4.04,21.98-4.35,0,0,0,30.92,0,30.92ZM62.83,144.96c-8.23.39-16.31,1.94-24,4.82-2.95-7.3-4.66-14.99-5.13-22.99h29.13v18.18ZM62.83,121.81h-29.29c0-8.16,1.4-16.16,3.96-23.77,8.08,3.19,16.55,4.97,25.25,5.36v18.41h.08ZM75.26,180.62c8.08-7.15,14.45-15.69,18.88-25.32,4.97,2.02,9.71,4.58,14.14,7.69-8.86,9.24-20.43,15.46-33.02,17.63ZM111.54,159.18c-4.82-3.42-10.02-6.29-15.46-8.47,2.95-7.61,4.66-15.61,5.13-23.93h23.15c-.93,11.89-5.28,23.07-12.82,32.39ZM113.4,87.63c7.22,10.02,11.03,21.75,11.11,34.1h-23.23c-.08-8.47-1.4-16.78-4.04-24.7,5.75-2.41,11.19-5.59,16.16-9.4ZM110.37,83.75c-4.58,3.5-9.56,6.37-14.76,8.62-4.43-10.88-11.42-20.66-20.28-28.59,13.59,2.33,25.95,9.32,35.04,19.96ZM67.8,64.09c10.33,7.92,18.33,18.33,23.15,30.14-7.46,2.64-15.23,4.12-23.15,4.27v-34.41ZM67.8,103.48c8.47-.16,16.86-1.71,24.86-4.58,2.41,7.38,3.65,15.07,3.73,22.84h-28.59v-18.26ZM67.8,126.78h28.43c-.47,7.69-2.1,15.15-4.82,22.22-7.61-2.56-15.54-3.88-23.62-4.04,0,0,0-18.18,0-18.18ZM67.8,149.86c7.38.16,14.68,1.4,21.67,3.65-4.89,10.41-12.35,19.58-21.67,26.8,0,0,0-30.45,0-30.45ZM62.83,63.55v34.88c-8.08-.39-16-2.1-23.46-5.05,4.97-11.73,13.05-21.98,23.46-29.83ZM54.52,63.94c-8.55,7.61-15.3,17.09-19.73,27.5-4.89-2.33-9.48-5.2-13.75-8.55,8.78-9.87,20.59-16.55,33.48-18.95ZM17.85,86.78c4.66,3.65,9.79,6.84,15.07,9.32-2.87,8.23-4.35,16.86-4.35,25.71H6.05c.08-12.74,4.19-24.86,11.81-35.04ZM6.28,126.78h22.53c.47,8.62,2.33,16.94,5.52,24.78-5.13,2.25-10.02,5.13-14.45,8.39-8-9.48-12.66-20.9-13.59-33.17Z"/>
            <g>
              <g>
                <polyline class="cls-5" points="76.66 115.6 126.14 115.6 126.14 186.37 100.66 186.37"/>
                <polygon class="cls-3" points="128.47 188.7 100.66 188.7 100.66 184.04 123.74 184.04 123.74 118.01 76.66 118.01 76.04 113.27 128.47 113.27 128.47 188.7"/>
              </g>
              <g>
                <polygon class="cls-5" points="78.45 116.84 78.45 187.69 104.47 200.51 104.47 130.43 78.45 116.84"/>
                <path class="cls-3" d="M106.88,204.31l-30.76-15.15v-75.9l30.76,15.77v75.28h0ZM80.78,186.21l21.36,10.49v-64.87l-21.36-11.19v65.57Z"/>
              </g>
              <g>
                <polygon class="cls-5" points="136.63 165.47 111.85 146.13 136.63 126.78 136.63 135.33 162.5 135.33 162.5 154.98 137.18 154.98 137.18 165.94 136.63 165.47"/>
                <path class="cls-3" d="M139.58,170.6l-4.35-3.26-27.11-21.21,30.92-24.16v10.95h25.87v24.39h-25.32v13.28ZM115.73,146.13l19.11,14.92v-8.47h25.32v-14.99h-25.87v-5.98l-18.57,14.53Z"/>
              </g>
            </g>
          </g>
        </g>
        <g>
          <path class="cls-3" d="M431.22,104.76c.59-1.84,1.55-4.34,2.5-6.4,7.21-15.75,21.57-27.01,37.61-29.59,4.42-.74,9.94-.74,14.13,0,3.61.59,7.65,1.84,10.45,3.09.44.22.88.37.96.37s.52-1.1.96-2.5.88-2.58.88-2.58c0-.07-.59-.37-1.4-.74-5.23-2.21-10.01-3.31-16.19-3.75-1.25-.07-6.4.07-7.8.22-6.4.74-11.63,2.28-17.3,5.08-8.02,3.97-14.79,9.57-20.31,17-4.05,5.3-7.21,11.56-9.42,18.25-.29.81-.44,1.47-.44,1.47.15.15,4.71,1.55,4.78,1.47.15,0,.37-.66.59-1.4Z"/>
          <path class="cls-3" d="M492.75,85.26c.15,0,1.69-4.64,1.62-4.78s-3.09-1.32-4.64-1.84c-2.36-.74-5.23-1.25-7.73-1.47-2.65-.22-6.55,0-9.49.52-2.43.44-5.81,1.47-8.32,2.5-10.6,4.56-19.06,13.47-23.55,24.73-.37,1.03-1.4,3.97-1.4,4.05.07.07,4.71,1.55,4.71,1.55,0,0,.29-.81.59-1.77,1.69-5,3.97-9.27,7.14-13.25,1.25-1.55,4.56-4.86,6.18-6.11,5.52-4.2,11.41-6.62,18.03-7.21,5.08-.44,11.04.52,15.75,2.58.59.22,1.1.44,1.1.52Z"/>
          <path class="cls-3" d="M481.93,90.34c-3.61-.37-7.88.22-11.41,1.55-1.47.52-4.05,1.77-5.37,2.58-5.08,3.16-9.2,7.88-11.85,13.4-.66,1.32-1.69,4.05-1.77,4.64l-.07.29,2.43.81c1.62.52,2.43.74,2.43.66.37-1.1,1.25-3.31,1.84-4.56,3.61-7.65,9.13-12.51,15.9-14.06,4.49-1.03,10.38-.52,14.35,1.25l.66.29.74-2.28c.44-1.25.74-2.28.74-2.36s-.37-.22-.81-.44c-2.58-.88-5-1.47-7.8-1.77Z"/>
          <path class="cls-3" d="M503.13,168.57c10.38-5.08,18.77-12.07,25.54-21.42,8.61-11.85,13.25-26.79,12.88-41.44-.07-2.8-.37-6.48-.59-7.58,0-.15-.15-.22-.22-.22-.15.07-51.59,27.23-53.07,28.04l-.81.44-1.47-2.8-1.47-2.8.22-.37c.37-.81.59-1.62.59-2.72,0-1.99-.66-3.53-2.06-4.93-1.32-1.32-2.72-1.91-4.42-1.91-3.68,0-6.18,3.61-5.23,7.51.29,1.25.81,2.13,1.77,3.09,1.1,1.18,2.06,1.69,3.9,2.06.22.07.44.29,1.25,1.84.52,1.03,1.18,2.21,1.4,2.72l.52.96-27.09,14.35-27.09,14.28.52.52c8.91,7.88,19.73,13.32,31.28,15.75,14.94,3.09,30.1,1.25,43.65-5.37ZM515.93,151.35c2.36-5.3,4.2-9.79,5.23-12.66,2.5-7.07,3.68-13.4,4.05-21.12.07-1.4.15-2.65.22-2.65.07-.07,2.21-1.32,4.86-2.8s4.78-2.72,4.78-2.72c.07,0-.07,2.8-.22,4.42-1.25,13.76-7.21,26.35-17.89,37.17l-1.69,1.69.66-1.32Z"/>
          <path class="cls-3" d="M532.57,207.36l-.22-.52c-4.49-9.2-7.73-17.96-12.81-34.3-.88-2.8-1.62-5.08-1.62-5.08l-.74.59c-.96.81-3.68,2.87-4.93,3.68-4.12,2.8-9.79,5.52-14.5,7.07-2.72.88-5.96,1.69-8.98,2.28l-1.03.22-.37,1.18c-2.8,8.32-6.48,17.08-10.08,24.36-.07.22-.22.37-.29.52h-29.37v11.56h102.31v-11.56h-17.37ZM512.11,178.07c.07-.07.88-.66,1.91-1.32,1.03-.66,1.91-1.25,1.99-1.32.15-.07.22.07,1.03,2.87,2.13,7.43,4.42,13.91,7.88,22.52,1.03,2.58,1.99,4.86,2.06,5.15.15.44,0,.29-1.25-.96-4.42-4.56-9.13-12.88-12.22-21.93-.81-2.5-1.55-4.93-1.4-5Z"/>
        </g>
      </g>
    </g>
  </g>
</svg>