<?xml version="1.0" encoding="UTF-8"?>
<svg id="Layer_1" data-name="Layer 1" xmlns="http://www.w3.org/2000/svg" viewBox="0 0 338.79 418.29">
  <defs>
    <style>
      .cls-1 {
        fill: #fff;
      }
    </style>
  </defs>
  <path d="M302.27,18.33c4.75,4.99-18.5,27.1-22.76,30.63-5.56,4.61-27.75,19.76-33.86,20.41-1.93.21-2.42.09-3.97-1.08-3.05-2.3-10.18-15.57-14.15-20.08-11.71-13.3-34.89-27.34-52.74-28.45-29.81-1.85-61.61,27.71-40.57,56.24,22.42,30.4,87.93,37.75,121.81,50.09,15.92-18.65,29.34-39.5,45.53-57.94,1.89-2.15,19.57-22.8,22.09-19.91,4.06,24.63-20.51,37.14-34.15,53.44-7.09,8.47-13.13,19.58-19.92,28.47,21.05,11.29,41,19.95,55.26,40.11,40.51,57.27-16.01,115.07-56.71,152.18-6.17,5.63-31.05,27.68-37.78,27.66-23.15-11.72-40.7-34.95-66.68-41.31-24.01,34.83-62.55,89.69-103.54,104.77-41.05,15.1-70.59-7.11-56.61-50.92,19.78-62.02,106.58-105.52,169.07-92.24l25.51-46.51c.72-2.58-.03-1.55-1.57-2.21-7.59-3.26-18.18-5.05-26.37-7.84-31.9-10.87-88.12-29.88-91.54-69.42-1.62-18.82,1.66-36.59,10.2-53.28l4.09-.19c-6.05,44.26,34.43,62.83,69.06,75.52,13.68,5.01,42.29,15.11,55.76,16.97,1.39.19,3.46.6,4.59-.11l8.54-17.83c.72-2.59-.05-1.55-1.58-2.21-10.06-4.4-25.95-6.99-37.4-11.05-45.4-16.12-97.94-41.18-82.59-99.74C124.3-4.82,203.62-8.02,249.56,9.09c13.43,5,25.61,15.74,40.28,13.17,4.36-.77,7.85-4.2,12.43-3.92ZM186.97,273.21c21.59,7.3,41.5,18.85,60.23,31.65,5.56,3.8,5.46,8.76,13.37,5.77,11.06-4.18,47.75-47.35,51.95-59.16,3.84-10.8,3.93-29.93.41-40.82-8.17-25.28-45.48-37.13-68.95-42.73l-8.65,21.32c31.16,5.06,74.43,36.87,56.12,72.51-2.25,4.39-11.58,15.48-16.92,14.39-4.33-.89,3.02-7.91,3.86-10.36,5.91-17.16-20.13-25.04-32.35-29.55-10.63-3.93-21.61-7.14-32.65-9.72l-26.42,46.71ZM102.55,296.46c-35.97,4.1-90.69,46.57-93.67,84.37-1.85,23.49,18.14,32.97,38.74,27.35,25.43-6.94,68.09-55.1,84.3-76.65,4.71-6.26,14.2-17.74,16.84-24.49.51-1.31,1.86-2.48.5-3.92-14.59-5.72-31.1-8.44-46.71-6.66Z"/>
  <path class="cls-1" d="M102.55,296.46c15.61-1.78,32.12.94,46.71,6.66,1.36,1.44.01,2.61-.5,3.92-2.64,6.75-12.14,18.23-16.84,24.49-16.21,21.55-58.87,69.71-84.3,76.65-20.6,5.62-40.59-3.86-38.74-27.35,2.98-37.8,57.7-80.27,93.67-84.37Z"/>
  <path class="cls-1" d="M186.97,273.21l26.42-46.71c11.05,2.57,22.02,5.79,32.65,9.72,12.23,4.52,38.26,12.4,32.35,29.55-.84,2.45-8.2,9.47-3.86,10.36,5.34,1.09,14.67-10,16.92-14.39,18.31-35.64-24.96-67.45-56.12-72.51l8.65-21.32c23.46,5.6,60.77,17.46,68.95,42.73,3.52,10.89,3.43,30.02-.41,40.82-4.19,11.81-40.89,54.98-51.95,59.16-7.91,2.99-7.82-1.97-13.37-5.77-18.73-12.8-38.64-24.35-60.23-31.65Z"/>
</svg>