<?xml version="1.0" encoding="UTF-8"?>
<svg id="Layer_1" data-name="Layer 1" xmlns="http://www.w3.org/2000/svg" viewBox="0 0 623.02 542.01">
  <defs>
    <style>
      .cls-1, .cls-2 {
        fill: #cd242b;
      }

      .cls-3 {
        fill: #130751;
      }

      .cls-4 {
        fill: #fff;
      }

      .cls-2 {
        fill-rule: evenodd;
      }
      
      /* --- ANIMATION CSS ADDED HERE --- */
      .ant-line {
        stroke: #cd242b; /* Line color */
        stroke-width: 2.7; /* Line thickness */
        stroke-dasharray: 10 5; /* 10px dash, 5px gap */
        fill: none; /* No fill on the line */
        animation: marching-ants 1s linear infinite;
      }

      @keyframes marching-ants {
        from {
          stroke-dashoffset: 0;
        }
        to {
          stroke-dashoffset: -15; /* Negative sum of dash and gap */
        }
      }
      /* --- END OF ADDED CSS --- */
    </style>
  </defs>
  <!-- The original rectangle paths have been commented out and replaced by single stroke paths -->
  <g id="Line_6" data-name="Line 6">
    <!-- <path class="cls-1" d="M500.61,151.3h-7.6v-2.7h7.6v2.7ZM485.51,151.3h-7.6v-2.7h7.6v2.7ZM470.41,151.3h-7.6v-2.7h7.6v2.7ZM455.31,151.3h-7.6v-2.7h7.6v2.7ZM440.21,151.3h-7.5v-2.7h7.6v2.7h-.1ZM425.11,151.3h-7.6v-2.7h7.6v2.7ZM410.01,151.3h-7.6v-2.7h7.6v2.7ZM394.91,151.3h-5.7v-2.7h5.7v2.7Z"/> -->
    <path class="ant-line" d="M500.61 150 L394.91 150"/>
  </g>
  <g id="Line_5" data-name="Line 5">
    <!-- <path class="cls-1" d="M443.31,283.1l-5.3-5.3,1.9-1.9,5.3,5.3-1.9,1.9ZM432.61,272.4l-5.3-5.3,1.9-1.9,5.3,5.3-1.9,1.9ZM421.91,261.8l-5.3-5.3,1.9-1.9,5.3,5.3-1.9,1.9ZM411.21,251.1l-5.3-5.3,1.9-1.9,5.3,5.3-1.9,1.9ZM400.61,240.4l-5.3-5.3,1.9-1.9,5.3,5.3-1.9,1.9ZM389.91,229.7l-5.3-5.3,1.9-1.9,5.3,5.3-1.9,1.9ZM379.21,219l-5.3-5.3,1.9-1.9,5.3,5.3-1.9,1.9Z"/> -->
    <path class="ant-line" d="M443.31 283.1 L379.21 219"/>
  </g>
  <g id="Line_4" data-name="Line 4">
    <!-- <path class="cls-1" d="M294.71,331.5v7.6h-2.7v-7.6h2.7ZM294.71,346.6v7.6h-2.7v-7.6h2.7ZM294.71,361.7v7.6h-2.7v-7.6h2.7ZM294.71,376.8v7.6h-2.7v-7.6h2.7ZM294.71,391.9v7.6h-2.7v-7.6h2.7ZM294.71,407v7.6h-2.7v-7.6h2.7ZM294.71,422.1v7.6h-2.7v-7.6h2.7ZM294.71,437.3v5.7h-2.7v-5.7h2.7Z"/> -->
    <path class="ant-line" d="M293.36 437.3 L293.36 331.5"/>
  </g>
  <g id="Line_3" data-name="Line 3">
    <!-- <path class="cls-1" d="M136.81,281.2l5.3-5.3,1.9,1.9-5.3,5.3-1.9-1.9ZM147.51,270.6l5.3-5.3,1.9,1.9-5.3,5.3-1.9-1.9ZM158.11,259.9l5.3-5.3,1.9,1.9-5.3,5.3-1.9-1.9ZM168.81,249.2l5.3-5.3,1.9,1.9-5.3,5.3-1.9-1.9ZM179.51,238.5l5.3-5.3,1.9,1.9-5.3,5.3-1.9-1.9ZM190.21,227.8l5.3-5.3,1.9,1.9-5.3,5.3-1.9-1.9ZM200.91,217.1l5.3-5.3,1.9,1.9-5.3,5.3-1.9-1.9Z"/> -->
    <path class="ant-line" d="M136.81 281.2 L200.91 217.1"/>
  </g>
  <g id="Line_2" data-name="Line 2">
    <!-- <path class="cls-1" d="M186.91,151.3h-7.6v-2.7h7.6v2.7ZM171.81,151.3h-7.6v-2.7h7.6v2.7ZM156.71,151.3h-7.6v-2.7h7.6v2.7ZM141.61,151.3h-7.6v-2.7h7.6v2.7ZM126.51,151.3h-7.6v-2.7h7.6v2.7ZM111.41,151.3h-7.6v-2.7h7.6v2.7ZM96.31,151.3h-7.6v-2.7h7.6v2.7ZM81.21,151.3h-5.7v-2.7h5.7v2.7Z"/> -->
    <path class="ant-line" d="M81.21 150 L186.91 150"/>
  </g>
  <g id="Line_1" data-name="Line 1">
    <!-- <path class="cls-1" d="M290.51,19.2v7.6h-2.7v-7.6h2.7ZM290.51,34.3v7.6h-2.7v-7.6h2.7ZM290.51,49.4v7.6h-2.7v-7.6h2.7ZM290.51,64.5v7.6h-2.7v-7.6h2.7ZM290.51,79.6v7.6h-2.7v-7.6h2.7ZM290.51,94.7v7.6h-2.7v-7.6h2.7ZM290.51,109.8v5.7h-2.7v-5.7h2.7Z"/> -->
    <path class="ant-line" d="M289.16 109.8 L289.16 19.2"/>
  </g>
  <g id="arrow">
    <polygon class="cls-1" points="299.11 16.9 289.21 0 279.31 16.9 289.21 14 299.11 16.9"/>
    <polygon class="cls-1" points="303.31 327.3 293.41 310.5 283.51 327.3 293.41 324.4 303.31 327.3"/>
    <polygon class="cls-1" points="191.11 159.9 208.01 150 191.11 140.1 194.01 150 191.11 159.9"/>
    <polygon class="cls-1" points="386.01 140.1 369.21 150 386.01 159.9 383.21 150 386.01 140.1"/>
    <polygon class="cls-1" points="375.81 199.7 356.91 194.8 361.81 213.8 366.81 204.7 375.81 199.7"/>
    <polygon class="cls-1" points="206.11 199.7 225.11 194.8 220.21 213.8 215.21 204.7 206.11 199.7"/>
  </g>
  <g>
    <g>
      <path class="cls-3" d="M279.73,204.12l-10.24,43.94-11.39,49.01c-.19.77,0,1.44.38,2.11s1.05,1.05,1.72,1.24h.57c1.24,0,2.3-.86,2.68-2.11l3.73-16.08h45.85l3.73,16.08c.29,1.24,1.44,2.11,2.68,2.11h.67c.77-.19,1.34-.57,1.72-1.24s.48-1.44.38-2.11l-4.21-18.19-7.27-30.92-10.24-43.94-5.46.96,1.91,8.71h-13.98l1.91-8.71-5.17-.86ZM281.26,222.41l5.36,6.03-9.09,10.24,3.73-16.27ZM278.39,245.95l11.77-13.31,11.77,13.31h-23.55ZM299.45,251.5l-9.19,6.6-9.19-6.6h18.38ZM273.99,253.32l11.49,8.14-15.99,11.3,4.5-19.43ZM290.16,264.91l16.37,11.77h-32.74l16.37-11.77ZM294.95,261.46l11.49-8.14,4.5,19.62-15.99-11.49ZM293.8,228.24l5.36-6.03,3.73,16.08-9.09-10.05ZM290.07,224.13l-4.21-4.79h8.71l-4.5,4.79Z"/>
      <path class="cls-3" d="M233.21,181.53c1.05,0,2.01-.57,2.49-1.44s.48-2.01-.1-2.87c-5.84-8.71-5.46-22.21.86-30.25.77-1.24.57-2.78-.57-3.73-1.15-.86-2.78-.77-3.73.19-7.85,9.96-8.42,26.13-1.15,36.95.57.77,1.34,1.15,2.2,1.15h0Z"/>
      <path class="cls-3" d="M242.21,172.44c1.05,0,2.01-.57,2.49-1.53s.38-2.11-.29-2.97c-2.39-3.54-2.3-8.33.38-11.77.57-.57.96-1.34.96-2.11s-.38-1.53-.96-2.11c-.57-.48-1.44-.77-2.2-.67-.77.1-1.53.57-1.91,1.24-4.4,5.26-4.79,12.92-.86,18.57.57.96,1.44,1.44,2.39,1.34h0Z"/>
      <path class="cls-3" d="M344.72,177.23c-.67,1.24-.19,2.78.96,3.54,1.15.77,2.78.57,3.64-.48,7.27-10.82,6.7-26.99-1.15-36.95-.48-.67-1.15-1.05-1.91-1.24-.77-.1-1.53.1-2.2.57-.57.48-.96,1.24-1.05,2.01-.1.77.19,1.53.77,2.11,6.51,8.23,6.8,21.82.96,30.44h0Z"/>
      <path class="cls-3" d="M335.92,168.04c-.96,1.24-.67,2.97.57,3.92,1.24.96,2.97.67,3.92-.57,4.12-5.65,3.83-13.31-.57-18.76-.48-.67-1.15-1.15-1.91-1.24-.77-.1-1.63.1-2.2.67-.57.48-.96,1.24-.96,2.11,0,.77.29,1.53.96,2.11,2.58,3.45,2.68,8.23.19,11.77h0Z"/>
      <path class="cls-3" d="M263.07,188.81h.1l.29.29c10.05,9.86,24.6,13.69,38.19,9.96,13.59-3.73,24.22-14.36,27.85-28.05,3.64-13.59-.29-28.14-10.24-38.1-9.96-9.96-24.5-13.88-38.1-10.24-13.59,3.64-24.31,14.26-28.05,27.85-3.73,13.59.1,28.14,9.96,38.19v.1ZM269.78,163.35c.19,5.17.96,10.24,2.2,15.22-2.39,1.24-4.69,2.78-6.7,4.5-4.98-5.46-7.94-12.35-8.52-19.72h13.02ZM287.39,193.5c-3.25-1.53-6.32-5.74-8.52-11.77,2.78-.96,5.65-1.53,8.52-1.72v13.5ZM277.62,191.77c-2.97-1.15-5.74-2.78-8.23-4.79,1.34-1.05,2.78-2.01,4.31-2.78.96,2.68,2.3,5.17,3.92,7.56h0ZM292.94,193.5v-13.31c2.87.29,5.74,1.05,8.42,2.11-2.2,5.74-5.36,9.67-8.42,11.2ZM306.44,184.79c1.34.86,2.58,1.72,3.73,2.78-2.3,1.72-4.79,3.16-7.37,4.21,1.44-2.2,2.68-4.5,3.64-6.99h0ZM292.94,174.45v-11.1h12.06c-.19,4.5-.86,9-1.91,13.4-3.25-1.15-6.7-2.01-10.15-2.3ZM292.94,157.79v-11.3c3.45-.29,6.8-1.05,10.05-2.2,1.15,4.4,1.82,9,1.91,13.59h-11.97v-.1ZM292.94,140.85v-13.11c3.06,1.53,6.13,5.46,8.42,11.2-2.68.96-5.55,1.63-8.42,1.91ZM302.8,129.56c2.78,1.05,5.36,2.58,7.66,4.31-1.24,1.05-2.58,2.01-3.92,2.78-.96-2.58-2.3-4.98-3.73-7.27v.19ZM287.39,127.74v13.11c-2.87-.29-5.74-.96-8.42-1.91,2.3-5.74,5.36-9.67,8.42-11.2ZM273.99,136.35c-1.34-.77-2.68-1.72-3.92-2.68,2.3-1.72,4.88-3.16,7.56-4.21-1.53,2.2-2.68,4.5-3.64,6.89h0ZM287.39,146.5v11.3h-12.06c.19-4.59.86-9.09,1.91-13.59,3.25,1.24,6.7,2.01,10.15,2.3ZM287.39,163.35v11.01c-3.45.19-6.89.86-10.24,1.91-1.05-4.21-1.63-8.61-1.82-13.02l12.06.1ZM314.38,183.83c-1.91-1.72-3.92-3.16-6.13-4.5,1.44-5.17,2.2-10.53,2.39-15.99h13.02c-.67,7.75-3.92,14.93-9.28,20.48h0ZM323.57,157.79h-13.02c-.19-5.36-.96-10.63-2.39-15.79,2.2-1.24,4.31-2.68,6.32-4.31,5.26,5.46,8.42,12.54,9.09,20.1ZM265.85,137.5c1.91,1.63,4.02,3.06,6.32,4.31-1.44,5.17-2.2,10.53-2.39,15.99h-13.02c.57-7.56,3.83-14.74,9.09-20.29h0Z"/>
    </g>
    <g>
      <circle class="cls-3" cx="294.99" cy="497.11" r="44.91"/>
      <g>
        <path class="cls-3" d="M425.75,314.76c-.46.46-1.19.46-1.64,0s-.46-1.19,0-1.64c3.01-3.01,6.75-5.57,10.77-7.21,3.92-1.64,8.21-2.55,12.68-2.55s8.76.91,12.68,2.55c4.11,1.64,7.76,4.11,10.77,7.21.46.46.46,1.19,0,1.64s-1.19.46-1.64,0c-2.83-2.83-6.2-5.11-10.04-6.66-3.65-1.46-7.57-2.37-11.77-2.37s-8.21.82-11.77,2.37c-3.74,1.55-7.12,3.83-10.04,6.66h0ZM432.14,321.14c-.46.46-1.19.46-1.64,0s-.46-1.19,0-1.64c2.19-2.19,4.93-4.01,7.85-5.29,2.83-1.19,6.02-1.82,9.22-1.82s6.39.64,9.22,1.82c3.01,1.19,5.66,3.01,7.85,5.29.46.46.46,1.19,0,1.64s-1.19.46-1.64,0c-2.01-2.01-4.38-3.65-7.12-4.74-2.55-1.09-5.38-1.64-8.3-1.64s-5.75.55-8.3,1.64c-2.65,1.09-5.11,2.74-7.12,4.74h0ZM438.52,327.53c-.46.46-1.19.46-1.64,0s-.46-1.19,0-1.64c1.37-1.37,3.1-2.55,4.93-3.28s3.74-1.19,5.75-1.19,4.01.37,5.84,1.19c1.82.73,3.56,1.92,4.93,3.28.46.46.46,1.19,0,1.64s-1.19.46-1.64,0c-1.19-1.19-2.55-2.1-4.2-2.74-1.46-.64-3.19-1-4.93-1s-3.38.37-4.84.91c-1.64.73-3.01,1.64-4.2,2.83h0ZM447.56,330.45c1.73,0,3.28.73,4.38,1.82s1.82,2.65,1.82,4.38-.73,3.28-1.82,4.38-2.65,1.82-4.38,1.82-3.28-.73-4.38-1.82-1.82-2.65-1.82-4.38.73-3.28,1.82-4.38c1.19-1.19,2.74-1.82,4.38-1.82h0ZM419.82,349.16h5.57l-19.44-49.64c-.18-.46-.55-.91-1-1.28-.46-.27-.91-.55-1.37-.55h-1.55c-.27,0-.55.09-.82.18-.27.09-.46.27-.55.46-.09.27-.18.46-.18.82,0,.27.09.64.18,1l19.16,49h0ZM469.73,349.16h5.57l19.16-49c.18-.37.18-.73.18-1s-.09-.55-.18-.82c-.09-.18-.37-.37-.55-.46-.27-.09-.55-.18-.82-.18h-1.55c-.46,0-.91.18-1.37.55-.46.37-.82.73-1,1.28l-19.44,49.64h0ZM459.33,357.55c1.46,0,2.83.64,3.83,1.55s1.55,2.28,1.55,3.83c0,1.46-.64,2.83-1.55,3.83s-2.28,1.55-3.83,1.55c-1.46,0-2.83-.64-3.83-1.64-1-1-1.55-2.28-1.55-3.74s.64-2.83,1.55-3.83c1-1,2.28-1.55,3.83-1.55ZM461.42,360.74c-.55-.55-1.28-.91-2.1-.91s-1.55.37-2.1.91-.91,1.28-.91,2.1.27,1.55.82,2.1c.55.55,1.28.91,2.1.91s1.55-.37,2.1-.91.91-1.28.91-2.1-.27-1.55-.82-2.1h0ZM420.64,357.55c1.46,0,2.83.64,3.74,1.55,1,1,1.55,2.28,1.55,3.83,0,1.46-.64,2.83-1.55,3.74-1,1-2.28,1.55-3.83,1.55-1.46,0-2.83-.64-3.83-1.64-1-1-1.55-2.28-1.55-3.74s.64-2.83,1.55-3.83c1.09-.91,2.46-1.46,3.92-1.46h0ZM422.74,360.74c-.55-.55-1.28-.91-2.1-.91s-1.55.37-2.1.91-.91,1.28-.91,2.1.27,1.55.82,2.1c.55.55,1.28.91,2.1.91s1.55-.37,2.1-.82c.55-.55.91-1.28.91-2.1.09-.91-.27-1.64-.82-2.19h0ZM404.76,357.55c1.46,0,2.83.64,3.74,1.55,1,1,1.55,2.28,1.55,3.83,0,1.46-.64,2.83-1.55,3.74-1,1-2.28,1.55-3.83,1.55-1.46,0-2.83-.64-3.74-1.55-1-1-1.55-2.28-1.55-3.83s.64-2.83,1.55-3.74c1-1,2.37-1.55,3.83-1.55ZM406.86,360.74c-.55-.55-1.28-.91-2.1-.91s-1.55.37-2.1.82c-.55.55-.91,1.28-.91,2.1s.37,1.55.82,2.1c.55.55,1.28.91,2.1.91s1.55-.37,2.1-.82c.55-.55.91-1.28.91-2.1s-.27-1.55-.82-2.1h0ZM492.63,376.62h-90.06v3.1c0,.82.37,1.64.91,2.19.55.55,1.37.91,2.19.91h83.95c.82,0,1.64-.37,2.19-.91.55-.55.91-1.37.91-2.19l-.09-3.1ZM499.66,351.53h-104.2c-.91,0-1.73.37-2.37.91-.64.64-1,1.46-1,2.37v16.06c0,.91.37,1.73,1,2.37s1.46,1,2.37,1h104.2c.91,0,1.73-.37,2.37-.91.64-.64,1-1.46,1-2.37v-15.88c0-.91-.37-1.73-1-2.37-.55-.73-1.46-1.19-2.37-1.19Z"/>
        <g>
          <path class="cls-3" d="M119.71,359.01l8.58-3.92-5.75-9.95-2.83,13.87Z"/>
          <path class="cls-3" d="M136.68,306.91c3.47,3.47,3.47,9.12-.09,12.68s-9.22,3.56-12.68.09c-3.47-3.47-3.47-9.12.09-12.68,3.56-3.47,9.22-3.56,12.68-.09"/>
          <path class="cls-3" d="M114.06,386.48l25.27-9.58,5.29-25.91-25.64,11.68-4.93,23.81Z"/>
          <path class="cls-3" d="M171.54,373.79l7.3-35.59-4.2-1.73-15.69,23.27,12.59,14.05Z"/>
          <path class="cls-3" d="M142.43,377.08l18.71,6.93,7.57,2.83,1.92-9.4-22.99-25.73-5.2,25.37Z"/>
          <path class="cls-3" d="M156.85,357.37l14.87-22.08-19.07-7.76-4.2,20.44,8.39,9.4Z"/>
          <path class="cls-3" d="M92.34,339.3l-7.39,36.04,22.45-10.58-15.06-25.46Z"/>
          <path class="cls-3" d="M116.34,360.56l3.83-18.89c.09-.27,0-.64-.18-.91l-2.28-3.92c-.18-.27-.36-.46-.64-.55l-22.54-8.12-1.37,6.75,16.88,28.56,6.3-2.92Z"/>
          <path class="cls-3" d="M110.95,386.84l4.65-22.63-28.83,13.6,24.18,9.03Z"/>
          <path class="cls-3" d="M113.33,323.24l16.97,29.38,17.06-29.47c1.09-2.01,1.92-3.92,2.28-5.75s.46-3.74.36-5.66c-.82-9.67-9.03-17.61-18.8-18.07h-.91c-5.11,0-9.95,1.92-13.69,5.47-3.92,3.74-6.11,8.85-6.11,14.33,0,.73,0,1.46.09,2.19.36,2.37,1.28,4.93,2.74,7.57h0ZM118.53,311.29c.82-5.02,4.84-8.94,9.76-9.76,8.21-1.37,15.24,5.66,13.87,13.87-.82,5.02-4.84,9.03-9.85,9.85-8.12,1.28-15.15-5.75-13.78-13.96Z"/>
          <path class="cls-3" d="M149.73,326.62h0l-.64-.37v.09l-1.19,2.01-14.14,24.27,11.68-5.29,3.47-16.88.82-3.83Z"/>
        </g>
      </g>
      <path class="cls-3" d="M623.02,190.24h0v-66.97h-104.29v69.44h104.2v-2.46h.09ZM524.11,131.47l34.03,26.55-34.03,26.55v-53.1ZM570.83,161.22l-41.7-32.57h83.4l-41.7,32.57ZM562.43,161.4l8.39,6.57,8.39-6.57,33.3,26h-83.4l33.3-26h0ZM583.6,158.03l34.03-26.55v53.1l-34.03-26.55Z"/>
      <path class="cls-3" d="M9.58,106.29c-5.2,0-9.58,4.29-9.58,9.58v98.27c0,5.2,4.29,9.58,9.58,9.58h44.34c5.2,0,9.58-4.29,9.58-9.58v-98.36c0-5.2-4.29-9.58-9.58-9.58H9.58v.09ZM26.46,115.42h10.58c.73,0,1.28.82,1.28,1.82s-.55,1.82-1.28,1.82h-10.68c-.73,0-1.28-.82-1.28-1.82.09-1,.64-1.82,1.37-1.82ZM5.29,128.19h52.92v73.45H5.29v-73.45ZM31.75,206.75h0c3.28,0,5.93,2.65,5.93,5.93h0c0,3.28-2.65,5.93-5.93,5.93h0c-3.28,0-5.93-2.65-5.93-5.93h0c0-3.28,2.65-5.93,5.93-5.93h0Z"/>
      <path class="cls-4" d="M318.03,515.69l-5.7,5.7q-.08.08-.17.17l-.17.08c-1.4,1.16-3.3,1.73-5.61,1.73-6.44,0-15.36-4.79-22.7-12.14-10.32-10.32-14.86-22.87-10.32-28.4h0c.08-.08.08-.17.17-.25l5.7-5.7c.41-.41,1.16-.41,1.65,0l9.74,9.74c.25.25.33.5.33.83s-.08.58-.33.83l-5.12,5.12c.41,1.24,2.23,5.7,6.69,10.07,4.29,4.29,8.01,5.61,9.33,6.03l5.12-5.12c.41-.41,1.16-.41,1.65,0l9.74,9.74c.25.25.33.5.33.83,0,.25-.08.58-.33.74Z"/>
      <g>
        <path class="cls-2" d="M31.57,151.64c-1.19,1-2.92.91-3.92-.18s-.91-2.83.18-3.92l8.21-7.66c1.09-1.09,2.92-1,3.92.18l8.12,7.48c1.19,1,1.28,2.83.27,3.92-1,1.19-2.83,1.28-3.92.27l-.09-.09-3.56-3.28v20.07c.09,1.55-1.09,2.83-2.65,2.92s-2.83-1.09-2.92-2.65v-20.26l-3.65,3.19Z"/>
        <path class="cls-2" d="M15.33,182.02c-1.09-1.09-1.09-2.83-.09-3.92,1-1.09,2.74-1.19,3.92-.18l3.47,3.28v-20.07c-.09-1.55,1.09-2.83,2.65-2.92s2.83,1.09,2.92,2.65v20.35l3.56-3.28c1.19-1,2.92-.91,3.92.27,1,1.09.91,2.83-.18,3.83l-8.12,7.48c-1.09,1.09-2.83,1.19-3.92.18l-8.12-7.66h0Z"/>
      </g>
    </g>
  </g>
</svg>